<?xml version="1.0" encoding="UTF-8" standalone="no"?>
<!-- Created with Inkscape (http://www.inkscape.org/) -->

<svg
   xmlns:dc="http://purl.org/dc/elements/1.1/"
   xmlns:cc="http://creativecommons.org/ns#"
   xmlns:rdf="http://www.w3.org/1999/02/22-rdf-syntax-ns#"
   xmlns:svg="http://www.w3.org/2000/svg"
   xmlns="http://www.w3.org/2000/svg"
   xmlns:sodipodi="http://sodipodi.sourceforge.net/DTD/sodipodi-0.dtd"
   xmlns:inkscape="http://www.inkscape.org/namespaces/inkscape"
   width="16px"
   height="16px"
   viewBox="0 0 16 16"
   version="1.1"
   id="SVGRoot"
   inkscape:version="0.92.4 (5da689c313, 2019-01-14)"
   sodipodi:docname="gear.svg">
  <defs
     id="defs3726" />
  <sodipodi:namedview
     id="base"
     pagecolor="#ffffff"
     bordercolor="#666666"
     borderopacity="1.0"
     inkscape:pageopacity="0.0"
     inkscape:pageshadow="2"
     inkscape:zoom="16"
     inkscape:cx="-1.4375"
     inkscape:cy="8"
     inkscape:document-units="px"
     inkscape:current-layer="SVGRoot"
     showgrid="false"
     inkscape:window-width="1920"
     inkscape:window-height="1137"
     inkscape:window-x="-8"
     inkscape:window-y="-8"
     inkscape:window-maximized="1"
     inkscape:grid-bbox="true" />
  <metadata
     id="metadata3729">
    <rdf:RDF>
      <cc:Work
         rdf:about="">
        <dc:format>image/svg+xml</dc:format>
        <dc:type
           rdf:resource="http://purl.org/dc/dcmitype/StillImage" />
        <dc:title></dc:title>
      </cc:Work>
    </rdf:RDF>
  </metadata>
  <g
     inkscape:label="Layer 1"
     inkscape:groupmode="layer"
     id="layer1">
    <g
       id="gear"
       transform="matrix(0.33333333,0,0,0.33333333,0.046055,-0.2083334)">
      <path
         id="path3752"
         d="M 39.601563,27.199219 C 39.699219,26.5 39.800781,25.800781 39.800781,25 c 0,-0.800781 -0.101562,-1.5 -0.199218,-2.199219 l 4.5,-3.199218 C 44.5,19.300781 44.699219,18.699219 44.398438,18.199219 L 40,10.800781 c -0.300781,-0.5 -0.800781,-0.699218 -1.300781,-0.402343 l -5,2.300781 C 32.5,11.800781 31.300781,11.101563 29.898438,10.5 l -0.5,-5.5 c -0.09766,-0.5 -0.5,-0.898437 -1,-0.898437 h -8.597657 c -0.5,0 -1,0.398437 -1,0.898437 l -0.5,5.5 C 16.898438,11.101563 15.601563,11.800781 14.5,12.699219 l -5,-2.300781 c -0.5,-0.199219 -1.101562,0 -1.300781,0.402343 l -4.300781,7.398438 c -0.296875,0.5 -0.097657,1.101562 0.300781,1.402344 l 4.5,3.199218 C 8.601563,23.5 8.5,24.199219 8.5,25 c 0,0.800781 0.101563,1.5 0.199219,2.199219 L 4,30.398438 C 3.601563,30.699219 3.398438,31.300781 3.699219,31.800781 L 8,39.199219 c 0.300781,0.5 0.800781,0.699219 1.300781,0.402344 l 5,-2.300782 C 15.5,38.199219 16.699219,38.898438 18.101563,39.5 l 0.5,5.5 c 0.09766,0.5 0.5,0.898438 1,0.898438 h 8.597656 c 0.5,0 1,-0.398438 1,-0.898438 l 0.5,-5.5 C 31.101563,38.898438 32.398438,38.199219 33.5,37.300781 l 5,2.300782 c 0.5,0.199218 1.101563,0 1.300781,-0.402344 l 4.300782,-7.398438 c 0.296875,-0.5 0.09766,-1.101562 -0.300782,-1.402343 z M 24,35 c -5.5,0 -10,-4.5 -10,-10 0,-5.5 4.5,-10 10,-10 5.5,0 10,4.5 10,10 0,5.5 -4.5,10 -10,10 z"
         style="fill:#607d8b"
         inkscape:connector-curvature="0" />
      <path
         id="path3754"
         d="m 24,13 c -6.601562,0 -12,5.398438 -12,12 0,6.601563 5.398438,12 12,12 6.601563,0 12,-5.398437 12,-12 0,-6.601562 -5.398437,-12 -12,-12 z m 0,17 c -2.800781,0 -5,-2.199219 -5,-5 0,-2.800781 2.199219,-5 5,-5 2.800781,0 5,2.199219 5,5 0,2.800781 -2.199219,5 -5,5 z"
         style="fill:#455a64"
         inkscape:connector-curvature="0" />
    </g>
  </g>
</svg>
