<?xml version="1.0" encoding="UTF-8" standalone="no"?>
<!-- Created with Inkscape (http://www.inkscape.org/) -->

<svg
   xmlns:dc="http://purl.org/dc/elements/1.1/"
   xmlns:cc="http://creativecommons.org/ns#"
   xmlns:rdf="http://www.w3.org/1999/02/22-rdf-syntax-ns#"
   xmlns:svg="http://www.w3.org/2000/svg"
   xmlns="http://www.w3.org/2000/svg"
   xmlns:sodipodi="http://sodipodi.sourceforge.net/DTD/sodipodi-0.dtd"
   xmlns:inkscape="http://www.inkscape.org/namespaces/inkscape"
   width="16px"
   height="16px"
   viewBox="0 0 16 16"
   version="1.1"
   id="SVGRoot"
   inkscape:version="0.92.4 (5da689c313, 2019-01-14)"
   sodipodi:docname="reroute.svg">
  <defs
     id="defs26" />
  <sodipodi:namedview
     id="base"
     pagecolor="#ffffff"
     bordercolor="#666666"
     borderopacity="1.0"
     inkscape:pageopacity="0.0"
     inkscape:pageshadow="2"
     inkscape:zoom="32"
     inkscape:cx="4.225223"
     inkscape:cy="6.3634287"
     inkscape:document-units="px"
     inkscape:current-layer="reroute"
     showgrid="false"
     inkscape:window-width="1920"
     inkscape:window-height="1137"
     inkscape:window-x="-8"
     inkscape:window-y="-8"
     inkscape:window-maximized="1"
     inkscape:grid-bbox="true" />
  <metadata
     id="metadata29">
    <rdf:RDF>
      <cc:Work
         rdf:about="">
        <dc:format>image/svg+xml</dc:format>
        <dc:type
           rdf:resource="http://purl.org/dc/dcmitype/StillImage" />
        <dc:title></dc:title>
      </cc:Work>
    </rdf:RDF>
  </metadata>
  <g
     inkscape:label="Layer 1"
     inkscape:groupmode="layer"
     id="reroute">
    <g
       id="g283"
       transform="scale(0.05387205)"
       style="stroke:none;stroke-opacity:1">
      <g
         id="g210"
         style="stroke:none;stroke-opacity:1">
	<g
   id="g184"
   style="stroke:none;stroke-opacity:1">
		<g
   id="g182"
   style="stroke:none;stroke-opacity:1">
			<g
   id="g180"
   style="stroke:none;stroke-opacity:1">
				<g
   id="g178"
   style="stroke:none;stroke-opacity:1">
					<g
   id="g176"
   style="stroke:none;stroke-opacity:1">
						<circle
   id="circle174"
   r="148.5"
   cy="148.5"
   cx="148.5"
   style="fill:#d5c295;stroke:none;stroke-opacity:1" />

					</g>

				</g>

			</g>

		</g>

	</g>

	<path
   id="path186"
   d="m 237.887,141.719 52.069,52.072 c -15.801,49.389 -56.74,87.535 -107.772,99.37 L 125.429,230.5 H 214.5 Z"
   style="fill:#bca77e;stroke:none;stroke-opacity:1"
   inkscape:connector-curvature="0" />

	<g
   id="g190"
   style="stroke:none;stroke-opacity:1">
		<path
   id="path188"
   d="m 82.5,49.5 c -18.225,0 -33,14.775 -33,33 0,18.225 33,66 33,66 0,0 33,-47.775 33,-66 0,-18.225 -14.775,-33 -33,-33 z m 0,49.5 C 73.387,99 66,91.613 66,82.5 66,73.387 73.387,66 82.5,66 91.613,66 99,73.387 99,82.5 99,91.613 91.613,99 82.5,99 Z"
   style="fill:#79302a;stroke:none;stroke-opacity:1"
   inkscape:connector-curvature="0" />

	</g>

	<g
   id="g194"
   style="stroke:none;stroke-opacity:1">
		<path
   id="path192"
   d="m 214.5,132 c -18.225,0 -33,14.775 -33,33 0,18.225 33,66 33,66 0,0 33,-47.775 33,-66 0,-18.225 -14.775,-33 -33,-33 z m 0,49.5 c -9.113,0 -16.5,-7.387 -16.5,-16.5 0,-9.113 7.387,-16.5 16.5,-16.5 9.113,0 16.5,7.387 16.5,16.5 0,9.113 -7.387,16.5 -16.5,16.5 z"
   style="fill:#662621;stroke:none;stroke-opacity:1"
   inkscape:connector-curvature="0" />

	</g>

	<g
   id="g208"
   style="stroke:none;stroke-opacity:1">
		<g
   id="g198"
   style="stroke:none;stroke-opacity:1">
			<path
   id="path196"
   d="m 82.497,153.5 c -1.311,0 -2.601,-0.53 -3.53,-1.46 -0.93,-0.931 -1.47,-2.221 -1.47,-3.54 0,-1.32 0.54,-2.61 1.47,-3.54 0.93,-0.931 2.22,-1.46 3.53,-1.46 1.319,0 2.609,0.529 3.54,1.46 0.93,0.939 1.46,2.22 1.46,3.54 0,1.31 -0.53,2.6 -1.46,3.54 -0.931,0.93 -2.221,1.46 -3.54,1.46 z"
   style="fill:#503b2c;stroke:none;stroke-opacity:1"
   inkscape:connector-curvature="0" />

		</g>

		<g
   id="g202"
   style="stroke:none;stroke-opacity:1">
			<path
   id="path200"
   d="m 195.327,231 c 0,-2.76 2.239,-5 5,-5 v 0 c 2.76,0 5,2.24 5,5 v 0 c 0,2.76 -2.24,5 -5,5 v 0 c -2.761,0 -5,-2.24 -5,-5 z m -14.1,0 c 0,-2.76 2.24,-5 5,-5 v 0 c 2.76,0 5,2.24 5,5 v 0 c 0,2.76 -2.24,5 -5,5 v 0 c -2.76,0 -5,-2.24 -5,-5 z m -14.1,0 c 0,-2.76 2.24,-5 5,-5 v 0 c 2.76,0 5,2.24 5,5 v 0 c 0,2.76 -2.24,5 -5,5 v 0 c -2.76,0 -5,-2.24 -5,-5 z m -14.101,0 c 0,-2.76 2.24,-5 5,-5 v 0 c 2.761,0 5,2.24 5,5 v 0 c 0,2.76 -2.239,5 -5,5 v 0 c -2.759,0 -5,-2.24 -5,-5 z m -14.089,0 c 0,-2.76 2.23,-5 4.99,-5 v 0 c 2.771,0 5.01,2.24 5.01,5 v 0 c 0,2.76 -2.239,5 -5.01,5 v 0 c -2.76,0 -4.99,-2.24 -4.99,-5 z m -9.9,4.76 h 0.01 c -2.73,-0.44 -4.58,-3.01 -4.14,-5.74 v 0 c 0.449,-2.72 3.02,-4.569 5.739,-4.13 v 0 c 2.73,0.44 4.58,3.021 4.13,5.74 v 0 c -0.399,2.45 -2.52,4.2 -4.93,4.2 v 0 c -0.259,0 -0.53,-0.03 -0.809,-0.07 z m -14.5,-10.401 v 0 c -1.431,-2.369 -0.67,-5.439 1.699,-6.859 v 0 c 2.36,-1.431 5.431,-0.67 6.86,1.689 v 0 c 0,0 0,0 0,0.011 v 0 c 1.43,2.359 0.66,5.43 -1.7,6.859 v 0 c -0.81,0.49 -1.699,0.72 -2.58,0.72 v 0 c -1.689,0 -3.349,-0.869 -4.279,-2.42 z m 0.779,-11.089 c -2.76,-0.12 -4.909,-2.45 -4.79,-5.21 v 0 c 0.11,-2.76 2.45,-4.899 5.21,-4.78 v 0 c 2.75,0.11 4.9,2.44 4.78,5.2 v 0 c -0.109,2.69 -2.33,4.79 -4.99,4.79 v 0 c -0.069,0 -0.139,0 -0.21,0 z m 1.701,-14.14 c -2.189,-1.68 -2.62,-4.82 -0.939,-7.01 v 0 c 1.67,-2.2 4.81,-2.62 7.01,-0.95 v 0 c 2.189,1.68 2.61,4.82 0.939,7.01 v 0 c -0.979,1.29 -2.47,1.97 -3.979,1.97 v 0 c -1.062,-0.001 -2.121,-0.34 -3.031,-1.02 z m 24.12,-10.38 c 0,-2.76 2.24,-5 5,-5 v 0 c 2.76,0 5,2.24 5,5 v 0 c 0,2.76 -2.24,5 -5,5 v 0 c -2.76,0 -5,-2.24 -5,-5 z m -14.1,0 c 0,-2.76 2.239,-5 5,-5 v 0 c 2.76,0 5,2.24 5,5 v 0 c 0,2.76 -2.24,5 -5,5 v 0 c -2.761,0 -5,-2.24 -5,-5 z m 28.39,-1.07 c -1.97,-1.93 -2,-5.1 -0.07,-7.07 v 0 c 1.931,-1.97 5.101,-2.01 7.07,-0.069 v 0 c 1.97,1.93 2.01,5.09 0.07,7.069 v 0 c -0.98,1 -2.271,1.5 -3.57,1.5 v 0 c -1.26,-0.001 -2.52,-0.48 -3.5,-1.43 z m 8.69,-11.18 c -2.74,-0.37 -4.66,-2.88 -4.301,-5.62 v 0 c 0.37,-2.74 2.881,-4.66 5.62,-4.29 v 0 c 2.73,0.36 4.66,2.88 4.29,5.61 v 0 c -0.33,2.52 -2.479,4.34 -4.95,4.34 v 0 c -0.219,0 -0.439,-0.011 -0.659,-0.04 z m -5.881,-16.62 c -1.159,-2.5 -0.079,-5.47 2.431,-6.64 v 0 c 2.5,-1.171 5.479,-0.08 6.64,2.43 v 0 c 0,0 0,0 0,-0.01 v 0 c 1.17,2.51 0.08,5.479 -2.42,6.649 v 0 c -0.689,0.311 -1.4,0.46 -2.11,0.46 v 0 c -1.881,0.001 -3.69,-1.069 -4.541,-2.889 z m -6.969,-6.91 h 0.01 c -2.619,-0.9 -4,-3.75 -3.1,-6.36 v 0 c 0.9,-2.609 3.75,-4 6.36,-3.09 v 0 c 2.609,0.9 3.989,3.74 3.09,6.36 v 0 c -0.71,2.06 -2.65,3.36 -4.73,3.36 v 0 c -0.541,0 -1.09,-0.08 -1.63,-0.27 z m -17.371,-5.47 c 0,-2.76 2.23,-5 4.99,-5 v 0 c 2.76,0 5,2.24 5,5 v 0 c 0,2.76 -2.24,5 -5,5 v 0 c -2.759,0 -4.99,-2.24 -4.99,-5 z m -14.099,0 c 0,-2.76 2.229,-5 5,-5 v 0 c 2.76,0 5,2.24 5,5 v 0 c 0,2.76 -2.24,5 -5,5 v 0 c -2.771,0 -5,-2.24 -5,-5 z m -14.1,0 c 0,-2.76 2.239,-5 5,-5 v 0 c 2.76,0 5,2.24 5,5 v 0 c 0,2.76 -2.24,5 -5,5 v 0 c -2.76,0 -5,-2.24 -5,-5 z m -14.1,0 c 0,-2.76 2.24,-5 5,-5 v 0 c 2.76,0 5,2.24 5,5 v 0 c 0,2.76 -2.24,5 -5,5 v 0 c -2.76,0 -5,-2.24 -5,-5 z"
   style="fill:#503b2c;stroke:none;stroke-opacity:1"
   inkscape:connector-curvature="0" />

		</g>

		<g
   id="g206"
   style="stroke:none;stroke-opacity:1">
			<path
   id="path204"
   d="m 214.497,236 c -1.311,0 -2.601,-0.53 -3.53,-1.471 -0.93,-0.92 -1.47,-2.21 -1.47,-3.529 0,-1.32 0.54,-2.61 1.47,-3.54 0.93,-0.931 2.22,-1.46 3.53,-1.46 1.319,0 2.609,0.529 3.54,1.46 0.93,0.93 1.46,2.22 1.46,3.54 0,1.319 -0.53,2.609 -1.46,3.529 -0.931,0.941 -2.221,1.471 -3.54,1.471 z"
   style="fill:#503b2c;stroke:none;stroke-opacity:1"
   inkscape:connector-curvature="0" />

		</g>

	</g>

</g>
      <g
         id="g212"
         style="stroke:none;stroke-opacity:1">
</g>
      <g
         id="g214"
         style="stroke:none;stroke-opacity:1">
</g>
      <g
         id="g216"
         style="stroke:none;stroke-opacity:1">
</g>
      <g
         id="g218"
         style="stroke:none;stroke-opacity:1">
</g>
      <g
         id="g220"
         style="stroke:none;stroke-opacity:1">
</g>
      <g
         id="g222"
         style="stroke:none;stroke-opacity:1">
</g>
      <g
         id="g224"
         style="stroke:none;stroke-opacity:1">
</g>
      <g
         id="g226"
         style="stroke:none;stroke-opacity:1">
</g>
      <g
         id="g228"
         style="stroke:none;stroke-opacity:1">
</g>
      <g
         id="g230"
         style="stroke:none;stroke-opacity:1">
</g>
      <g
         id="g232"
         style="stroke:none;stroke-opacity:1">
</g>
      <g
         id="g234"
         style="stroke:none;stroke-opacity:1">
</g>
      <g
         id="g236"
         style="stroke:none;stroke-opacity:1">
</g>
      <g
         id="g238"
         style="stroke:none;stroke-opacity:1">
</g>
      <g
         id="g240"
         style="stroke:none;stroke-opacity:1">
</g>
    </g>
  </g>
</svg>
